# xmcd CD database file
#
# Track frame offsets:
#	150
#	15165
#	32978
#	46125
#	64870
#	82189
#	92567
#	115025
#	135980
#	155962
#	167144
#	182056
#	200789
#	226818
#
# Disc length: 3421 seconds
#
# Revision: 0
# Processed by: cddbd v1.5.2PL0 Copyright (c) Steve Scherf et al.
# Submitted via: CDex 1.70beta2
#
DISCID=b40d5b0e
DTITLE=Gonzales - Soft Power
DYEAR=2008
DGENRE=Jazz
TTITLE0=Working together
TTITLE1=Slow down
TTITLE2=Theme from in-between
TTITLE3=Unrequited love
TTITLE4=Map of the world
TTITLE5=Modalisa
TTITLE6=Apology
TTITLE7=Let's ride
TTITLE8=C Major
TTITLE9=Singing something
TTITLE10=Fortunately, unfortunately
TTITLE11=Slow down remix
TTITLE12=Home movies
TTITLE13=Data
EXTD=YEAR: 2008
EXTT0=
EXTT1=
EXTT2=
EXTT3=
EXTT4=
EXTT5=
EXTT6=
EXTT7=
EXTT8=
EXTT9=
EXTT10=
EXTT11=
EXTT12=
EXTT13=
PLAYORDER=
